<svg fill="none" xmlns="http://www.w3.org/2000/svg" viewBox="0 0 128 128" width="56" height="56"><path fill-rule="evenodd" clip-rule="evenodd" d="M99.5 0h-71C12.76 0 0 12.76 0 28.5v71C0 115.24 12.76 128 28.5 128h71c15.74 0 28.5-12.76 28.5-28.5v-71C128 12.76 115.24 0 99.5 0z" fill="url(#AppIcon_tsx__a)"></path><path fill-rule="evenodd" clip-rule="evenodd" d="M14.767 48.77a34.046 34.046 0 0 0-4.383 7.148c-1.182 2.609-2.073 5.41-2.544 8.32-2.262 15.965 7.44 18.505 9.094 18.816 8.504.992 14.767-3.643 17.727-6.486 1.067 5.329 6.387 5.393 8.72 2.987.595-.614 1.072-1.368 1.442-2.154 1.384 5.037 5.815 3.322 6.336 3.098 2.47-.926 5.053-4.371 6.88-7.26 1.16 3.962 3.4 8.207 7.703 7.752 2.593-.063 9.095-6.984 9.696-6.081.6.747.76 2.119.72 4.166-.04 2.047 1.584 2.15 2.32 1.947 1.135-.315 1.85-2.557 3.039-4.506.932-1.528 1.627-2.393 2.552-3.411.466-.502 2.577-2.69 4.066-1.947 1.489.742 1.641 2.269 1.744 3.113.114.847.115 1.745.151 2.727-.043 3.39 1.547 3.869 1.996 3.994 3.679.995 3.907-5.933 6.606-8.504.253-.262 2.611-2.7 3.958 1.278 1.945 7.19 7.931 9.878 15.989 5.88 1.495-.742 1.788-1.032 2.604-1.64a.788.788 0 0 0 .317-.626v-.01a.783.783 0 0 0-1.165-.682l-.004.002c-.825.458-3.569 1.376-4.436 1.688-3.253.532-7.235.412-9.197-4.346-.591-1.434-1.176-2.725-2.187-4.082-1.143-1.534-4.885-3.36-8.38-.067-.908.833-1.578 1.755-2.16 2.674-.236.376-.455.754-.662 1.132l-.04-.15c-.309-1.066-1.297-5.005-5.405-5.645-.564-.046-2.85-.304-6.012 3.17-1.105 1.206-2.025 2.488-2.882 3.785l-.003.005c-.151-.705-.334-1.347-.515-1.628-2.687-4.141-6.757-.835-8.51.399-3.927 2.765-5.748 6.483-8.142-1.962a35.352 35.352 0 0 1-.743-3.63c2.386-4.06 7.243-16.413 4.455-24.695-.181-.523-1.153-3.196-3.486-3.024-.335.033-2.993-.247-4.446 7.193-1.36 7.192-1.06 16.462-.73 19.535.038.319.107.948.231 1.77-2.3 3.942-5.32 8.424-7.16 8.632-2.39.272-1.724-1.935-3.184-6.838-.251-.636-1.057-3.667-4.685-3.516-1.774.073-3.653.536-6.218 3.346-4.164 4.562-13.662 11.424-20.455 7.112-.738-.574-4.408-3.58-3.056-12.584.4-2.469 1.158-4.907 2.179-7.183a31.758 31.758 0 0 1 3.73-6.293c6.98-8.585 13.024-9.588 14.217-9.536 3.06 0 3.854 3.966 3.851 3.93a1.266 1.266 0 1 0 2.519-.246c-.006-.035.006-1.296-.518-2.494-.479-1.56-1.858-3.01-2.661-3.545-.99-.69-2.301-1.059-3.846-1.059-4.44 0-10.81 3.042-17.027 10.231zM60.493 61.3c-.033-13.982 1.741-17.155 1.872-16.912.677 1.258 2.135 9.13-1.844 17.735l-.029-.823zM37.474 75.037c.052-3.7 4.652-6.025 5.887-3.45.101.21.17.448.235.682-.214.68-.3 1.778-1.023 3.267-.763 1.573-1.962 2.354-3.005 2.354-1.155 0-2.12-.956-2.093-2.853z" fill="#fff"></path><defs><linearGradient id="AppIcon_tsx__a" x1="0" y1="0" x2="0" y2="128" gradientUnits="userSpaceOnUse"><stop stop-color="#60B4E7"></stop><stop offset="1" stop-color="#6461E0"></stop></linearGradient></defs></svg>